<?xml version="1.0" encoding="UTF-8"?>
<svg width="800px" height="600px" viewBox="0 0 800 600" version="1.1" xmlns="http://www.w3.org/2000/svg" xmlns:xlink="http://www.w3.org/1999/xlink">
    <title>Image Placeholder</title>
    <g stroke="none" stroke-width="1" fill="none" fill-rule="evenodd">
        <rect fill="#F2F2F2" x="0" y="0" width="800" height="600"></rect>
        <g transform="translate(250.000000, 213.000000)">
            <path d="M210.5,0 C232.86935,0 251,18.1306496 251,40.5 C251,62.8693504 232.86935,81 210.5,81 C188.13065,81 170,62.8693504 170,40.5 C170,18.1306496 188.13065,0 210.5,0 Z M143.349198,36.75 C149.159,36.75 153.865197,41.4561972 153.865197,47.266 L153.865197,110.734 C153.865197,116.543803 149.159,121.25 143.349198,121.25 L47.266,121.25 C41.4561972,121.25 36.75,116.543803 36.75,110.734 L36.75,47.266 C36.75,41.4561972 41.4561972,36.75 47.266,36.75 L143.349198,36.75 Z M260.375,105 L286.416667,141.75 L234.333333,141.75 L260.375,105 Z" fill="#B3B3B3"></path>
            <path d="M68.75,67.5743494 C68.75,64.2748882 71.4212992,61.6035891 74.7207604,61.6035891 L115.779239,61.6035891 C119.078701,61.6035891 121.75,64.2748882 121.75,67.5743494 L121.75,94.7756506 C121.75,98.0751118 119.078701,100.746411 115.779239,100.746411 L74.7207604,100.746411 C71.4212992,100.746411 68.75,98.0751118 68.75,94.7756506 L68.75,67.5743494 Z" fill="#FFFFFF"></path>
            <text font-family="Arial-BoldMT, Arial" font-size="16" font-weight="bold" fill="#333333">
                <tspan x="100" y="175">IMAGE NOT AVAILABLE</tspan>
            </text>
        </g>
    </g>
</svg> 